<?xml version="1.0" encoding="UTF-8"?>
<svg width="700pt" height="700pt" version="1.1" viewBox="0 0 700 700" xmlns="http://www.w3.org/2000/svg">
 <g>
  <path d="m481.77 157.5h-10.5c-5.5938-39.266-29.852-73.391-65.094-91.578-35.246-18.188-77.113-18.188-112.36 0-35.242 18.188-59.5 52.312-65.094 91.578h-10.5c-25.375 0.046875-49.695 10.145-67.637 28.09-17.945 17.941-28.043 42.262-28.09 67.637v18.551-0.003906c0.046875 25.375 10.145 49.695 28.09 67.637 17.941 17.945 42.262 28.043 67.637 28.09 6.25 0 12.027-3.3359 15.152-8.75 3.1289-5.4141 3.1289-12.086 0-17.5-3.125-5.4141-8.9023-8.75-15.152-8.75-16.094-0.046875-31.512-6.457-42.891-17.836-11.379-11.379-17.789-26.797-17.836-42.891v-18.547c0.046875-16.094 6.457-31.512 17.836-42.891 11.379-11.379 26.797-17.789 42.891-17.836h26.773c4.6406 0 9.0938-1.8438 12.375-5.125s5.125-7.7344 5.125-12.375c0-31.262 16.676-60.148 43.75-75.777s60.426-15.629 87.5 0 43.75 44.516 43.75 75.777c0 4.6406 1.8438 9.0938 5.125 12.375s7.7344 5.125 12.375 5.125h26.773c16.094 0.046875 31.512 6.457 42.891 17.836 11.379 11.379 17.789 26.797 17.836 42.891v18.551-0.003906c-0.046875 16.094-6.457 31.512-17.836 42.891-11.379 11.379-26.797 17.789-42.891 17.836-6.25 0-12.027 3.3359-15.152 8.75-3.1289 5.4141-3.1289 12.086 0 17.5 3.125 5.4141 8.9023 8.75 15.152 8.75 25.375-0.046875 49.695-10.145 67.637-28.09 17.945-17.941 28.043-42.262 28.09-67.637v-18.547c-0.046875-25.375-10.145-49.695-28.09-67.637-17.941-17.945-42.262-28.043-67.637-28.09z"/>
  <path d="m407.57 407.57-40.074 40.25v-202.82c0-6.2539-3.3359-12.031-8.75-15.156s-12.086-3.125-17.5 0-8.75 8.9023-8.75 15.156v202.82l-40.074-40.25c-4.4414-4.4375-10.91-6.1719-16.973-4.5469-6.0664 1.625-10.801 6.3594-12.426 12.426-1.625 6.0625 0.10938 12.531 4.5469 16.973l70 70c1.6641 1.5938 3.6289 2.8398 5.7773 3.6758 4.2344 1.8711 9.0625 1.8711 13.297 0 2.1484-0.83594 4.1133-2.082 5.7773-3.6758l70-70c4.4375-4.4414 6.1719-10.91 4.5469-16.973-1.625-6.0664-6.3594-10.801-12.426-12.426-6.0625-1.625-12.531 0.10938-16.973 4.5469z"/>
 </g>
</svg>
