<?xml version="1.0" encoding="UTF-8"?>
<svg width="700pt" height="700pt" version="1.1" viewBox="0 0 700 700" xmlns="http://www.w3.org/2000/svg">
 <path d="m542.5 221.38-180.77-164.32c-3.2188-2.9023-7.3945-4.5078-11.727-4.5078s-8.5078 1.6055-11.727 4.5078l-180.77 164.85c-10.883 9.7305-17.227 23.555-17.5 38.152v198.45c0.45703 13.461 6.2461 26.191 16.094 35.383 9.8477 9.1914 22.945 14.09 36.406 13.617h105c4.6406 0 9.0938-1.8438 12.375-5.125s5.125-7.7344 5.125-12.375v-87.5h70v87.5c0 4.6406 1.8438 9.0938 5.125 12.375s7.7344 5.125 12.375 5.125h105c13.461 0.47266 26.559-4.4258 36.406-13.617 9.8477-9.1914 15.637-21.922 16.094-35.383v-197.57c0.12109-15.086-6.2539-29.492-17.5-39.551zm-17.5 237.12c-0.48438 4.168-2.5938 7.9766-5.8711 10.598-3.2773 2.625-7.457 3.8438-11.629 3.4023h-87.5v-87.5c0-4.6406-1.8438-9.0938-5.125-12.375s-7.7344-5.125-12.375-5.125h-105c-4.6406 0-9.0938 1.8438-12.375 5.125s-5.125 7.7344-5.125 12.375v87.5h-87.5c-4.1719 0.44141-8.3516-0.77734-11.629-3.4023-3.2773-2.6211-5.3867-6.4297-5.8711-10.598v-198.45c-0.035156-4.6719 1.9414-9.1367 5.4258-12.25l169.57-154.18 169.05 153.65c3.9141 3.4375 6.0977 8.4414 5.9492 13.652z"/>
</svg>
