<?xml version="1.0" encoding="UTF-8"?>
<svg width="700pt" height="700pt" version="1.1" viewBox="0 0 700 700" xmlns="http://www.w3.org/2000/svg">
 <path d="m546.35 105-21.352-21.352c-13.555-13.551-31.934-21.16-51.102-21.16-19.164 0-37.543 7.6094-51.098 21.16l-71.227 70.875c-13.207 13.324-20.746 31.238-21.043 49.996-0.29297 18.758 6.6836 36.902 19.469 50.629l-24.852 24.852c-13.703-12.809-31.836-19.816-50.594-19.555-18.758 0.26172-36.684 7.7695-50.031 20.953l-70 71.051c-13.551 13.555-21.16 31.934-21.16 51.102 0 19.164 7.6094 37.547 21.16 51.098l20.477 21.703c13.555 13.551 31.934 21.16 51.102 21.16 19.164 0 37.543-7.6094 51.098-21.16l71.051-70c13.492-13.34 21.227-31.426 21.555-50.395 0.32812-18.969-6.7812-37.312-19.805-51.105l24.852-24.852c13.684 12.848 31.824 19.883 50.594 19.621 18.77-0.26172 36.707-7.7969 50.031-21.02l70-71.051c13.773-13.453 21.609-31.844 21.773-51.094 0.16797-19.25-7.3555-37.773-20.898-51.457zm-222.78 275.62-70.875 71.051c-7.0039 6.8828-16.43 10.738-26.25 10.738-9.8203 0-19.246-3.8555-26.25-10.738l-21.875-21.527c-6.8828-7.0039-10.738-16.43-10.738-26.25 0-9.8164 3.8555-19.246 10.738-26.25l71.051-70c6.6602-6.75 15.668-10.684 25.148-10.977 9.4805-0.29297 18.711 3.0742 25.777 9.4023l-24.5 24.676c-3.2617 3.2773-5.0898 7.7148-5.0898 12.336 0 4.625 1.8281 9.0586 5.0898 12.34 3.2773 3.2578 7.7148 5.0898 12.336 5.0898 4.625 0 9.0586-1.832 12.34-5.0898l24.676-24.5h-0.003906c5.9023 7.0234 9.0039 15.98 8.7109 25.148-0.28906 9.1719-3.9531 17.914-10.285 24.551zm198.1-197.93-71.051 70.875c-6.7031 6.6758-15.695 10.555-25.152 10.848-9.457 0.29297-18.668-3.0234-25.773-9.2734l24.5-24.676v0.003906c3.8594-4.5078 5.1719-10.66 3.4922-16.348-1.6836-5.6875-6.1328-10.137-11.82-11.82-5.6875-1.6797-11.84-0.36719-16.348 3.4922l-24.676 24.5h0.003906c-6.25-7.1055-9.5664-16.316-9.2734-25.773 0.29297-9.457 4.1719-18.449 10.848-25.152l70-71.051c7.0234-6.8398 16.441-10.668 26.25-10.668 9.8047 0 19.223 3.8281 26.25 10.668l21.523 21.523v0.003906c7.1562 6.8555 11.301 16.266 11.531 26.172 0.23047 9.9023-3.4766 19.496-10.305 26.676z"/>
</svg>
