<?xml version="1.0" encoding="UTF-8"?>
<svg width="700pt" height="700pt" version="1.1" viewBox="0 0 700 700" xmlns="http://www.w3.org/2000/svg">
 <path d="m528.32 87.5h-356.65c-13.043 0-25.551 5.1797-34.773 14.402s-14.402 21.73-14.402 34.773v286.65c0 13.043 5.1797 25.551 14.402 34.773s21.73 14.402 34.773 14.402h356.65c13.043 0 25.551-5.1797 34.773-14.402s14.402-21.73 14.402-34.773v-286.65c0-13.043-5.1797-25.551-14.402-34.773s-21.73-14.402-34.773-14.402zm-17.5 35-148.57 124.43c-3.4336 2.875-7.7695 4.4531-12.25 4.4531s-8.8164-1.5781-12.25-4.4531l-149.27-124.43zm17.5 315h-356.65c-7.8281 0-14.176-6.3477-14.176-14.176v-281.05l157.5 131.6c9.7578 8.332 22.168 12.91 35 12.91s25.242-4.5781 35-12.91l157.5-131.6v281.05c0 7.8281-6.3477 14.176-14.176 14.176z"/>
</svg>
